# xmcd CD database file
#
# Track frame offsets:
#	150
#	14239
#	28700
#	43522
#	56634
#	71024
#	84762
#	96988
#	109635
#	121071
#	134900
#	150234
#
# Disc length: 2169 seconds
#
# Revision: 0
# Processed by: cddbd v1.5.2PL0 Copyright (c) Steve Scherf et al.
# Submitted via: CDex 1.70beta2
#
DISCID=9c08770c
DTITLE=Stan Kenton and His Orchestra - DAISO The Jazz Big Band 6
DYEAR=2003
DGENRE=Jazz
TTITLE0=Easy Go
TTITLE1=Love For Sale
TTITLE2=Viva Prado
TTITLE3=Something New
TTITLE4=What's New
TTITLE5=Jump For Joe
TTITLE6=Francesca
TTITLE7=Lazzy Daisy
TTITLE8=Mambo Rhapsody
TTITLE9=Bags And Baggage
TTITLE10=Cool Eyes
TTITLE11=Lover Man
EXTD=YEAR: 2003
EXTT0=
EXTT1=
EXTT2=
EXTT3=
EXTT4=
EXTT5=
EXTT6=
EXTT7=
EXTT8=
EXTT9=
EXTT10=
EXTT11=
PLAYORDER=
